<svg xmlns="http://www.w3.org/2000/svg" width="283.171" height="675.161" viewBox="0 0 283.171 675.161">
  <g id="Section3Objects" transform="translate(-1373 -2433.95)">
    <path id="Rectangle_1188" data-name="Rectangle 1188" d="M60.411,0H236.8a0,0,0,0,1,0,0V59.114a60.411,60.411,0,0,1-60.411,60.411H0a0,0,0,0,1,0,0V60.411A60.411,60.411,0,0,1,60.411,0Z" transform="translate(1419.374 2989.587)" fill="#f1f6ff"/>
    <g id="Group_2114" data-name="Group 2114">
      <path id="Rectangle_1187" data-name="Rectangle 1187" d="M60.411,0H236.8a0,0,0,0,1,0,0V59.114a60.411,60.411,0,0,1-60.411,60.411H0a0,0,0,0,1,0,0V60.411A60.411,60.411,0,0,1,60.411,0Z" transform="translate(1446.01 2670.748) rotate(-90)" fill="#f1f6ff"/>
      <circle id="Ellipse_56" data-name="Ellipse 56" cx="13" cy="13" r="13" transform="translate(1373 2434)" fill="#f1f6ff"/>
    </g>
  </g>
</svg>
